<?xml version="1.0" encoding="utf-8"?>
<!-- Generator: Adobe Illustrator 19.1.0, SVG Export Plug-In . SVG Version: 6.00 Build 0)  -->
<svg version="1.1" xmlns="http://www.w3.org/2000/svg" xmlns:xlink="http://www.w3.org/1999/xlink" x="0px" y="0px"
	 viewBox="0 0 320 100" style="enable-background:new 0 0 320 100;" xml:space="preserve">
<style type="text/css">
	.st0{display:none;}
	.st1{display:inline;}
	.st2{fill:#FFFFFF;}
</style>
<g id="レイヤー_1" class="st0">
	<g class="st1">
		<line class="st2" x1="38.5" y1="-5.5" x2="28.9" y2="40.2"/>
		<g>
			<path d="M37-5.9c-3.2,15.3-6.4,30.5-9.6,45.8c-0.4,1.9,2.5,2.7,2.9,0.8c3.2-15.3,6.4-30.5,9.6-45.8C40.3-7,37.4-7.8,37-5.9
				L37-5.9z"/>
		</g>
	</g>
	<g class="st1">
		<line class="st2" x1="83.2" y1="-5.5" x2="73.5" y2="40.2"/>
		<g>
			<path d="M81.7-5.9c-3.2,15.3-6.4,30.5-9.6,45.8c-0.4,1.9,2.5,2.7,2.9,0.8c3.2-15.3,6.4-30.5,9.6-45.8C85-7,82.1-7.8,81.7-5.9
				L81.7-5.9z"/>
		</g>
	</g>
	<g class="st1">
		<line class="st2" x1="70.7" y1="-5.8" x2="117.7" y2="-5.8"/>
		<g>
			<path d="M70.8-4.2c15.7,0,31.5,0,47.2,0c1.9,0,1.9-3,0-3c-15.7,0-31.5,0-47.2,0C68.9-7.2,68.9-4.2,70.8-4.2L70.8-4.2z"/>
		</g>
	</g>
	<g class="st1">
		<line class="st2" x1="73.7" y1="40.2" x2="109.7" y2="40.2"/>
		<g>
			<path d="M73.3,41.8c12.3,0,24.6,0,36.8,0c1.9,0,1.9-3,0-3c-12.3,0-24.6,0-36.8,0C71.4,38.8,71.4,41.8,73.3,41.8L73.3,41.8z"/>
		</g>
	</g>
	<g class="st1">
		<polyline class="st2" points="12,18 -1.1,-5.5 -10.7,40.2 		"/>
		<g>
			<path d="M13.3,17.2C9,9.4,4.6,1.5,0.2-6.3c-0.6-1.1-2.5-0.9-2.7,0.4C-5.8,9.3-9,24.6-12.2,39.8c-0.4,1.9,2.5,2.7,2.9,0.8
				c3.2-15.3,6.4-30.5,9.6-45.8C-0.6-5-1.5-4.9-2.4-4.8C2,3.1,6.4,10.9,10.8,18.7C11.7,20.4,14.3,18.9,13.3,17.2L13.3,17.2z"/>
		</g>
	</g>
	<g class="st1">
		<polyline class="st2" points="117.7,71.2 83.2,71.2 96.5,94.7 		"/>
		<g>
			<path d="M118,70c-11.6,0-23.3,0-34.9,0c-1.1,0-1.9,1.3-1.3,2.3c4.5,7.8,9,15.7,13.4,23.5c1,1.7,3.6,0.2,2.6-1.5
				c-4.5-7.8-9-15.7-13.4-23.5c-0.4,0.8-0.9,1.5-1.3,2.3c11.6,0,23.3,0,34.9,0C120,73,120,70,118,70L118,70z"/>
		</g>
	</g>
	<g class="st1">
		<polyline class="st2" points="15.4,96.7 23.7,120.1 43.8,73.8 		"/>
		<g>
			<path d="M13.9,97.1c2.8,7.8,5.6,15.6,8.3,23.4c0.4,1.1,2.2,1.7,2.7,0.4c6.7-15.4,13.4-30.8,20.1-46.2c0.8-1.8-1.8-3.3-2.6-1.5
				c-6.7,15.4-13.4,30.8-20.1,46.2c0.9,0.1,1.8,0.2,2.7,0.4c-2.8-7.8-5.6-15.6-8.3-23.4C16.2,94.5,13.3,95.3,13.9,97.1L13.9,97.1z"
				/>
		</g>
	</g>
	<g class="st1">
		<polyline class="st2" points="-16.5,96.7 -8.2,120.1 11.9,73.8 		"/>
		<g>
			<path d="M-18,97.1c2.8,7.8,5.6,15.6,8.3,23.4c0.4,1.1,2.2,1.7,2.7,0.4C-0.2,105.4,6.5,90,13.2,74.6c0.8-1.8-1.8-3.3-2.6-1.5
				C3.9,88.5-2.8,103.9-9.5,119.3c0.9,0.1,1.8,0.2,2.7,0.4c-2.8-7.8-5.6-15.6-8.3-23.4C-15.7,94.5-18.6,95.3-18,97.1L-18,97.1z"/>
		</g>
	</g>
	<g class="st1">
		<polyline class="st2" points="106.4,111.8 110.2,119.2 73.7,119.2 		"/>
		<g>
			<path d="M104.9,112.8c1.3,2.5,2.7,4.9,4,7.4c0.4-0.8,0.9-1.5,1.3-2.3c-12.3,0-24.6,0-36.8,0c-1.9,0-1.9,3,0,3
				c12.3,0,24.6,0,36.8,0c1.2,0,1.8-1.3,1.3-2.3c-1.3-2.5-2.7-4.9-4-7.4C106.6,109.6,104,111.1,104.9,112.8L104.9,112.8z"/>
		</g>
	</g>
</g>
<g id="レイヤー_2">
	<g>
		<g>
			<line class="st2" x1="14.7" y1="28.2" x2="51.7" y2="28.2"/>
			<g>
				<path d="M15.1,29.2c12.3,0,24.6,0,36.8,0c1.9,0,1.9-3,0-3c-12.3,0-24.6,0-36.8,0C13.2,26.2,13.2,29.2,15.1,29.2L15.1,29.2z"/>
			</g>
		</g>
		<g>
			<line class="st2" x1="33.7" y1="37.2" x2="33.7" y2="72.2"/>
			<g>
				<path d="M32,36.9c0,11.9,0,23.8,0,35.8c0,1.9,3,1.9,3,0c0-11.9,0-23.8,0-35.8C35,34.9,32,34.9,32,36.9L32,36.9z"/>
			</g>
		</g>
		<g>
			<line class="st2" x1="81.7" y1="27.6" x2="66.2" y2="72.6"/>
			<g>
				<path d="M80.2,27.2c-5.2,15-10.3,30-15.5,45c-0.6,1.8,2.3,2.6,2.9,0.8C72.8,58,78,43,83.1,28C83.8,26.2,80.9,25.4,80.2,27.2
					L80.2,27.2z"/>
			</g>
		</g>
		<g>
			<line class="st2" x1="89.2" y1="47.2" x2="98.2" y2="72.6"/>
			<g>
				<path d="M87.7,47.6c3,8.5,6,16.9,9.1,25.4c0.6,1.8,3.5,1,2.9-0.8c-3-8.5-6-16.9-9.1-25.4C90,45,87.1,45.8,87.7,47.6L87.7,47.6z"
					/>
			</g>
		</g>
		<g>
			<line class="st2" x1="122.7" y1="27.2" x2="122.7" y2="72.2"/>
			<g>
				<path d="M121,27.6c0,15,0,30,0,45c0,1.9,3,1.9,3,0c0-15,0-30,0-45C124,25.7,121,25.7,121,27.6L121,27.6z"/>
			</g>
		</g>
		<g>
			<line class="st2" x1="147.5" y1="27.7" x2="122.5" y2="53.4"/>
			<g>
				<path d="M146.4,26.7c-8.3,8.6-16.7,17.1-25,25.7c-1.3,1.4,0.8,3.5,2.1,2.1c8.3-8.6,16.7-17.1,25-25.7
					C149.9,27.4,147.8,25.3,146.4,26.7L146.4,26.7z"/>
			</g>
		</g>
		<g>
			<line class="st2" x1="147.8" y1="72.9" x2="142.1" y2="64.6"/>
			<g>
				<path d="M149.1,72.1c-1.9-2.8-3.8-5.5-5.7-8.3c-1.1-1.6-3.7-0.1-2.6,1.5c1.9,2.8,3.8,5.5,5.7,8.3
					C147.6,75.2,150.2,73.7,149.1,72.1L149.1,72.1z"/>
			</g>
		</g>
		<g>
			<path class="st2" d="M172.7,40.2v19.4c0,0-0.3,13.1,13.8,13.1"/>
			<g>
				<path d="M171,40.5c0,13-3.6,33.2,15.3,33.8c1.9,0.1,1.9-2.9,0-3C170.1,70.8,174,51.5,174,40.5C174,38.6,171,38.6,171,40.5
					L171,40.5z"/>
			</g>
		</g>
		<g>
			<line class="st2" x1="200.7" y1="27.2" x2="200.7" y2="50.2"/>
			<g>
				<path d="M199,27.6c0,7.7,0,15.3,0,23c0,1.9,3,1.9,3,0c0-7.7,0-15.3,0-23C202,25.7,199,25.7,199,27.6L199,27.6z"/>
			</g>
		</g>
		<g>
			<path class="st2" d="M245.5,50.4c0,0,8.2-0.1,8-11.6c-0.3-11.5-8.1-11.6-8.1-11.6h-19.6v45"/>
			<g>
				<path d="M245.4,52.1c11.4-0.2,12.5-18.9,4.7-24.3c-2.7-1.9-5.5-1.7-8.6-1.7c-5.3,0-10.6,0-16,0c-0.8,0-1.5,0.7-1.5,1.5
					c0,15,0,30,0,45c0,1.9,3,1.9,3,0c0-15,0-30,0-45c-0.5,0.5-1,1-1.5,1.5c6.4,0,13.5-0.9,19.9,0c8.7,1.2,9.3,19.8,0,20
					C243.4,49.2,243.4,52.2,245.4,52.1L245.4,52.1z"/>
			</g>
		</g>
		<g>
			<line class="st2" x1="253.4" y1="72.9" x2="244.8" y2="64.6"/>
			<g>
				<path d="M254.5,71.8c-2.9-2.8-5.7-5.5-8.6-8.3c-1.4-1.3-3.5,0.8-2.1,2.1c2.9,2.8,5.7,5.5,8.6,8.3
					C253.7,75.3,255.9,73.2,254.5,71.8L254.5,71.8z"/>
			</g>
		</g>
		<g>
			<path class="st2" d="M276.7,40.2v19.4c0,0-0.3,13.1,13.8,13.1"/>
			<g>
				<path d="M275,40.5c0,13-3.6,33.2,15.3,33.8c1.9,0.1,1.9-2.9,0-3C274.1,70.8,278,51.5,278,40.5C278,38.6,275,38.6,275,40.5
					L275,40.5z"/>
			</g>
		</g>
		<g>
			<path class="st2" d="M304.7,60.2V40.8c0,0,0.3-13.9-14.6-13.9"/>
			<g>
				<path d="M306.4,60.5c0-13.7,3.6-34.3-16.1-34.9c-1.9-0.1-1.9,2.9,0,3c17.2,0.5,13.1,20.3,13.1,31.9
					C303.4,62.5,306.4,62.5,306.4,60.5L306.4,60.5z"/>
			</g>
		</g>
	</g>
</g>
</svg>
