<?xml version="1.0" encoding="utf-8"?>
<!-- Generator: Adobe Illustrator 19.2.0, SVG Export Plug-In . SVG Version: 6.00 Build 0)  -->
<svg version="1.1" id="レイヤー_1" xmlns="http://www.w3.org/2000/svg" xmlns:xlink="http://www.w3.org/1999/xlink" x="0px"
	 y="0px" viewBox="0 0 350 120.3" style="enable-background:new 0 0 350 120.3;" xml:space="preserve">
<style type="text/css">
	.st0{fill:none;}
	.st1{fill:#FFFFFF;}
</style>
<g>
	<g>
		<line class="st0" x1="93.9" y1="37.3" x2="84.3" y2="83.1"/>
		<g>
			<path d="M92.5,36.9c-3.2,15.3-6.4,30.5-9.6,45.8c-0.4,1.9,2.5,2.7,2.9,0.8C89,68.2,92.2,53,95.4,37.7
				C95.8,35.8,92.9,35,92.5,36.9L92.5,36.9z"/>
		</g>
	</g>
	<g>
		<line class="st0" x1="128.9" y1="37.4" x2="119.3" y2="83.2"/>
		<g>
			<path d="M127.5,37c-3.2,15.3-6.4,30.5-9.6,45.8c-0.4,1.9,2.5,2.7,2.9,0.8c3.2-15.3,6.4-30.5,9.6-45.8
				C130.8,35.9,127.9,35.1,127.5,37L127.5,37z"/>
		</g>
	</g>
	<g>
		<line class="st0" x1="116.5" y1="37.1" x2="163.5" y2="37.1"/>
		<g>
			<path d="M116.5,38.7c15.7,0,31.5,0,47.2,0c1.9,0,1.9-3,0-3c-15.7,0-31.5,0-47.2,0C114.6,35.7,114.6,38.7,116.5,38.7L116.5,38.7z"
				/>
		</g>
	</g>
	<g>
		<line class="st0" x1="119.5" y1="83.1" x2="155.5" y2="83.1"/>
		<g>
			<path d="M119.1,84.7c12.3,0,24.6,0,36.8,0c1.9,0,1.9-3,0-3c-12.3,0-24.6,0-36.8,0C117.2,81.7,117.2,84.7,119.1,84.7L119.1,84.7z"
				/>
		</g>
	</g>
	<g>
		<polyline class="st1" points="67.5,60.8 54.3,37.3 44.7,83.1 		"/>
		<g>
			<path d="M68.8,60c-4.4-7.8-8.8-15.7-13.2-23.5c-0.6-1.1-2.5-0.9-2.7,0.4c-3.2,15.3-6.4,30.5-9.6,45.8c-0.4,1.9,2.5,2.7,2.9,0.8
				c3.2-15.3,6.4-30.5,9.6-45.8c-0.9,0.1-1.8,0.2-2.7,0.4c4.4,7.8,8.8,15.7,13.2,23.5C67.1,63.2,69.7,61.7,68.8,60L68.8,60z"/>
		</g>
	</g>
	<g>
		<polyline class="st1" points="305,35.6 270.4,35.6 283.7,59.1 		"/>
		<g>
			<path d="M305.3,34.4c-11.6,0-23.3,0-34.9,0c-1.1,0-1.9,1.3-1.3,2.3c4.5,7.8,9,15.7,13.4,23.5c1,1.7,3.6,0.2,2.6-1.5
				c-4.5-7.8-9-15.7-13.4-23.5c-0.4,0.8-0.9,1.5-1.3,2.3c11.6,0,23.3,0,34.9,0C307.2,37.4,307.2,34.4,305.3,34.4L305.3,34.4z"/>
		</g>
	</g>
	<g>
		<polyline class="st1" points="213,61.1 221.4,84.5 241.5,38.2 		"/>
		<g>
			<path d="M211.6,61.5c2.8,7.8,5.6,15.6,8.3,23.4c0.4,1.1,2.2,1.7,2.7,0.4c6.7-15.4,13.4-30.8,20.1-46.2c0.8-1.8-1.8-3.3-2.6-1.5
				c-6.7,15.4-13.4,30.8-20.1,46.2c0.9,0.1,1.8,0.2,2.7,0.4c-2.8-7.8-5.6-15.6-8.3-23.4C213.8,58.9,210.9,59.7,211.6,61.5
				L211.6,61.5z"/>
		</g>
	</g>
	<g>
		<polyline class="st1" points="181.1,61.1 189.5,84.5 209.6,38.2 		"/>
		<g>
			<path d="M179.7,61.5c2.8,7.8,5.6,15.6,8.3,23.4c0.4,1.1,2.2,1.7,2.7,0.4c6.7-15.4,13.4-30.8,20.1-46.2c0.8-1.8-1.8-3.3-2.6-1.5
				c-6.7,15.4-13.4,30.8-20.1,46.2c0.9,0.1,1.8,0.2,2.7,0.4c-2.8-7.8-5.6-15.6-8.3-23.4C181.9,58.9,179,59.7,179.7,61.5L179.7,61.5z
				"/>
		</g>
	</g>
	<g>
		<polyline class="st1" points="293.6,76.2 297.4,83.6 261,83.6 		"/>
		<g>
			<path d="M292.1,77.2c1.3,2.5,2.7,4.9,4,7.4c0.4-0.8,0.9-1.5,1.3-2.3c-12.3,0-24.6,0-36.8,0c-1.9,0-1.9,3,0,3
				c12.3,0,24.6,0,36.8,0c1.2,0,1.8-1.3,1.3-2.3c-1.3-2.5-2.7-4.9-4-7.4C293.8,74,291.2,75.5,292.1,77.2L292.1,77.2z"/>
		</g>
	</g>
</g>
</svg>
